<svg xmlns="http://www.w3.org/2000/svg" version="1.1" xmlns:xlink="http://www.w3.org/1999/xlink" xmlns:svgjs="http://svgjs.dev/svgjs" width="1000" height="121" viewBox="0 0 1000 121"><g transform="matrix(1,0,0,1,-0.6060606060606233,0.16484534036349174)"><svg viewBox="0 0 396 48" data-background-color="#ffffff" preserveAspectRatio="xMidYMid meet" height="121" width="1000" xmlns="http://www.w3.org/2000/svg" xmlns:xlink="http://www.w3.org/1999/xlink"><defs></defs><g id="tight-bounds" transform="matrix(1,0,0,1,0.2400000000000091,-0.06539270335088077)"><svg viewBox="0 0 395.52 48.13078211568948" height="48.13078211568948" width="395.52"><g><svg viewBox="0 0 470.12705858003375 57.209706268218014" height="48.13078211568948" width="395.52"><g transform="matrix(1,0,0,1,0,7.906696018255893)"><svg viewBox="0 0 395.5199999999999 41.39631423170623" height="41.39631423170623" width="395.5199999999999"><g><svg viewBox="0 0 395.5199999999999 41.39631423170623" height="41.39631423170623" width="395.5199999999999"><g><svg viewBox="0 0 395.5199999999999 41.39631423170623" height="41.39631423170623" width="395.5199999999999"><g transform="matrix(1,0,0,1,0,0)"><svg width="395.5199999999999" viewBox="2.75 -34.75 343.4612731933594 35.95000076293945" height="41.39631423170623" data-palette-color="#41a067"><g class="undefined-text-0" data-fill-palette-color="primary" id="text-0"><path d="M13.25 0Q12.65 0 11.9-0.15L11.9-0.15Q11.15-0.3 10.55-0.3L10.55-0.3Q10.4-0.3 10.4-0.25L10.4-0.25 10.15-0.25Q9.65-0.55 9.65-0.8L9.65-0.8 6.15-16.65Q4.7-21.85 3.2-29L3.2-29Q3.15-29.15 3.13-29.5 3.1-29.85 3-30.15L3-30.15Q2.75-31.15 2.75-31.95L2.75-31.95Q2.75-32.55 2.9-33L2.9-33Q3-33.65 3.65-33.65L3.65-33.65 4.25-33.65 5.4-33.65Q5.8-33.55 6.7-33.55L6.7-33.55 8.95-33.5 9.4-33.5 14-33.5Q14.05-33.45 14.2-33.4 14.35-33.35 14.5-33.3L14.5-33.3Q14.6-33.3 14.68-33.35 14.75-33.4 14.8-33.4L14.8-33.4Q15-33.5 15.2-33.5L15.2-33.5 15.4-33.5 15.9-33.45Q16.55-33.4 18.65-33.4L18.65-33.4Q19.2-33.3 20.15-33.3L20.15-33.3Q20.45-32.7 21.15-29.65L21.15-29.65 21.7-26.8Q21.9-25.75 22.4-23.65L22.4-23.65Q22.4-23.6 22.43-23.4 22.45-23.2 22.5-22.9L22.5-22.9Q22.6-22.5 22.68-22.03 22.75-21.55 22.9-21L22.9-21Q22.95-20.65 23.3-18.65L23.3-18.65 24.15-14.5 24.3-13.75 24.3-13.55Q24.4-13.5 24.4-13.3L24.4-13.3 24.45-13 24.5-13.3Q24.5-13.6 24.65-13.75L24.65-13.75Q24.65-13.8 24.68-13.98 24.7-14.15 24.75-14.5L24.75-14.5Q25.15-16.5 25.55-18.65L25.55-18.65 26.05-21Q26.15-21.6 26.25-22.05 26.35-22.5 26.4-22.9L26.4-22.9 26.55-23.65Q26.8-24.7 27.2-26.8L27.2-26.8 27.75-29.4Q27.85-29.95 28.25-31.9L28.25-31.9Q28.5-32.7 28.8-33.3L28.8-33.3Q29.5-33.3 29.9-33.35L29.9-33.35 31.15-33.4 32.15-33.45 32.55-33.5 32.7-33.5Q32.8-33.5 32.8-33.4L32.8-33.4Q32.85-33.4 32.88-33.35 32.9-33.3 32.9-33.3L32.9-33.3Q33.1-33.3 33.23-33.35 33.35-33.4 33.4-33.4L33.4-33.4 33.4-33.5 36.55-33.5 36.95-33.5Q37.55-33.5 37.95-33.55L37.95-33.55 39.2-33.55Q40.15-33.55 40.5-33.65L40.5-33.65 41.65-33.65 42.3-33.65Q43.2-33.65 43.2-32.25L43.2-32.25 43.15-31.65Q43.15-31.15 42.95-30.15L42.95-30.15Q42.8-29.65 42.78-29.38 42.75-29.1 42.7-29L42.7-29Q41.4-22.4 39.8-16.65L39.8-16.65 36.3-0.8Q36.3-0.65 35.8-0.25L35.8-0.25 35.65-0.25 35.4-0.3Q35.05-0.3 34.75-0.15L34.75-0.15Q34.45 0 34.15 0L34.15 0Q33.5 0 32.8-0.15L32.8-0.15Q32-0.25 31.45-0.25L31.45-0.25Q25.25 0 13.25 0L13.25 0ZM50.3 0.05Q49.95 0.05 49.65-0.23 49.35-0.5 49.2-0.95L49.2-0.95Q49-1.85 48.9-2.95L48.9-2.95Q48.85-3.3 48.85-3.9L48.85-3.9 48.85-4.55 48.9-10.75Q48.9-13.9 49.05-16.95L49.05-16.95 49.05-32.75Q49.05-33.25 49.7-33.25L49.7-33.25Q53.15-33.25 54.85-33.3L54.85-33.3 59.85-33.3Q60-33.3 60.1-33.35 60.2-33.4 60.35-33.4L60.35-33.4Q61-33.5 62.15-33.45L62.15-33.45Q63-33.45 63.95-33.3L63.95-33.3Q64.25-33.1 64.4-33.2L64.4-33.2Q64.5-33.2 64.8-33.3L64.8-33.3Q65.55-33.3 65.97-33.2 66.4-33.1 66.65-32.75L66.65-32.75Q66.9-32.3 67.05-31.65L67.05-31.65Q67.1-31.15 67.1-29.55L67.1-29.55 67.1-19.8 67.1-19.05Q67.05-18.65 67.05-17.25L67.05-17.25Q67.05-15.75 66.95-14.9L66.95-14.9 66.9-12.65Q66.85-11.9 66.85-10.75L66.85-10.75 66.8-9.95 66.8-6.75Q66.8-3.75 66.55-1.65L66.55-1.65Q66.55-0.95 66.2-0.25L66.2-0.25Q65.3-0.25 63.6-0.15L63.6-0.15Q62.8-0.15 62.55-0.05L62.55-0.05 62.05-0.05 61.9-0.05Q61.55-0.05 61.55-0.15L61.55-0.15Q61.15-0.25 61.1-0.25L61.1-0.25 60.7-0.05 56.1-0.05Q56.05 0 55.3 0L55.3 0 53.4 0 51.55 0 50.3 0.05ZM84.6 1.2Q81.05 1.2 78.92 1.03 76.8 0.85 75.55 0.4L75.55 0.4Q74.25-0.15 73.65-1.1 73.05-2.05 73.05-3.65L73.05-3.65 73.05-4.9Q73.1-5.4 73.1-6.4L73.1-6.4Q73.15-6.9 73.15-7.9L73.15-7.9Q73.2-8.4 73.2-8.95L73.2-8.95Q73.2-10.85 73.1-14.65L73.1-14.65 73.05-17.65Q72.8-21.2 72.8-26.25L72.8-26.25 72.8-27.95 72.8-29.5Q72.8-31.25 72.95-32.05L72.95-32.05Q73.05-32.3 73.07-32.5 73.1-32.7 73.1-32.8L73.1-32.8Q73.15-33.7 73.85-34.15L73.85-34.15Q74.25-34.3 74.95-34.3L74.95-34.3Q75.4-34.3 75.92-34.35 76.45-34.4 77.05-34.4L77.05-34.4Q77.85-34.4 79.55-34.5L79.55-34.5Q80-34.55 80.62-34.6 81.25-34.65 82.05-34.65L82.05-34.65Q83.65-34.75 84.3-34.75L84.3-34.75Q88.4-34.75 93.9-33.95L93.9-33.95Q97.75-33.5 99.9-33L99.9-33Q103.55-32.1 105.45-30.65L105.45-30.65Q107.9-28.55 107.9-25.3L107.9-25.3Q107.9-21.1 104.45-18.95L104.45-18.95Q104.2-18.8 104-18.73 103.8-18.65 103.6-18.55L103.6-18.55Q102.7-18.3 102.05-17.9L102.05-17.9Q101.95-17.85 101.8-17.73 101.65-17.6 101.55-17.4L101.55-17.4Q101.55-17.4 101.57-17.38 101.6-17.35 101.6-17.3L101.6-17.3Q101.6-17.3 101.7-17.2L101.7-17.2Q105.15-15.8 107.3-13.75L107.3-13.75Q108.9-11.95 108.9-10L108.9-10Q108.9-7.25 105.55-4.45L105.55-4.45Q102.25-1.85 97.4-0.5L97.4-0.5Q93.8 0.5 90.3 0.9L90.3 0.9Q87.65 1.2 84.6 1.2L84.6 1.2ZM90.55-22.15Q90.8-22.15 91.1-22.3L91.1-22.3Q92.4-22.75 93.55-23.4L93.55-23.4Q94.25-23.7 94.92-24.03 95.6-24.35 95.85-24.45L95.85-24.45 96.3-24.65 96.7-24.75Q96.9-24.75 96.9-25L96.9-25Q96.9-25.85 95.05-26.15L95.05-26.15Q93.95-26.4 92.3-26.4L92.3-26.4Q90.8-26.4 90.4-25.25L90.4-25.25Q90.15-24.65 90.15-23.75 90.15-22.85 90.15-22.65L90.15-22.65 90.15-22.4Q90.15-22.15 90.55-22.15L90.55-22.15ZM89.7-7.7L89.8-7.7Q89.8-7.7 89.82-7.7 89.85-7.7 89.85-7.75L89.85-7.75Q93.35-9.45 97.8-11.45L97.8-11.45Q98-11.65 98.05-11.65L98.05-11.65 98.3-11.8Q96.2-12.45 94.15-12.65L94.15-12.65Q91.55-12.75 89.85-12.75L89.85-12.75Q89.3-12.75 89.3-12.05L89.3-12.05 89.3-8.05Q89.3-7.7 89.7-7.7L89.7-7.7ZM117.89 0Q117.64 0 117.14-0.08 116.64-0.15 115.94-0.2L115.94-0.2 114.89-0.45Q114.64-0.5 114.52-0.58 114.39-0.65 114.44-0.7L114.44-0.7Q114.44-2 114.29-4.15L114.29-4.15Q114.29-4.9 114.24-5.48 114.19-6.05 114.14-6.45L114.14-6.45 114.04-8.6Q114.04-9.45 113.94-10.75L113.94-10.75 113.89-12.3Q113.89-14.2 113.84-15.25L113.84-15.25Q113.79-16.3 113.79-19.65L113.79-19.65Q113.79-22.8 113.84-26.15 113.89-29.5 114.14-32.5L114.14-32.5Q114.14-33.05 115.34-33.4L115.34-33.4Q116.09-33.5 117.84-33.5L117.84-33.5Q121.89-33.5 123.79-33.65L123.79-33.65Q129.69-33.75 132.69-33.75L132.69-33.75 134.89-33.75Q138.99-33.65 141.19-33.45L141.19-33.45Q141.99-33.45 142.34-31.55L142.34-31.55Q142.49-31.2 142.69-29.75L142.69-29.75Q142.84-29 143.09-27.9L143.09-27.9Q143.14-27.6 143.12-27.33 143.09-27.05 143.09-27L143.09-27Q143.04-26.5 142.54-26.5L142.54-26.5Q142.34-26.55 141.94-26.55L141.94-26.55Q139.84-26.55 136.79-26.2L136.79-26.2 134.14-26Q132.49-25.8 131.54-25.75L131.54-25.75Q131.39-25.75 131.14-25.15L131.14-25.15Q130.94-24.5 130.69-22.15L130.69-22.15 130.59-20.9Q130.59-20.25 130.74-20.08 130.89-19.9 131.39-19.9L131.39-19.9 135.84-19.9Q137.79-19.9 140.29-19.65L140.29-19.65 140.89-19.65Q141.54-19.5 141.69-19.15L141.69-19.15Q141.89-18.85 141.94-18.5L141.94-18.5 142.14-14.05 142.14-13.9Q142.14-13.05 140.34-12.9L140.34-12.9Q139.29-12.65 136.34-12.65L136.34-12.65Q133.79-12.65 133.04-12.7L133.04-12.7Q131.59-12.7 131.29-12.65L131.29-12.65Q130.74-12.5 130.59-12.08 130.44-11.65 130.44-10.65L130.44-10.65Q130.44-10 130.34-8.8L130.34-8.8Q130.29-8.2 130.29-6.9L130.29-6.9Q133.54-6.9 135.09-7L135.09-7Q136.79-7.15 139.89-7.15L139.89-7.15Q140.09-7.15 140.29-6.8L140.29-6.8Q140.54-6.3 141.09-4.55L141.09-4.55Q141.39-3.55 141.69-2.05L141.69-2.05Q141.79-1.7 141.79-1.3L141.79-1.3Q141.79-0.25 140.79-0.25L140.79-0.25Q139.49-0.25 137.29-0.15L137.29-0.15Q136.14-0.05 133.69-0.05L133.69-0.05Q128.44-0.05 125.79 0L125.79 0 117.89 0ZM162.34 1.2Q158.79 1.2 155.19 0.4L155.19 0.4Q151.64-0.45 149.34-1.9L149.34-1.9Q148.74-3.7 148.44-5.5 148.14-7.3 147.69-10.65L147.69-10.65 147.69-10.8Q147.79-11.4 148.34-11.7L148.34-11.7Q150.24-10.55 151.99-9.98 153.74-9.4 155.84-9.4L155.84-9.4 157.04-9.4 157.84-9.35Q158.99-9.35 160.19-9.7L160.19-9.7Q160.84-9.95 161.09-10.65L161.09-10.65 158.44-11.95Q155.39-13.4 152.94-15.05L152.94-15.05Q150.39-16.9 149.29-19.75L149.29-19.75Q148.74-21.3 148.74-23.15L148.74-23.15Q148.74-27.65 151.49-30.4L151.49-30.4Q153.89-32.85 157.99-33.9L157.99-33.9Q161.54-34.75 165.79-34.75L165.79-34.75Q168.29-34.75 172.69-34.2L172.69-34.2Q173.14-34.1 173.94-34L173.94-34 175.44-33.7Q177.14-33.4 177.94-33.4L177.94-33.4Q177.99-33.4 178.12-33.25 178.24-33.1 178.34-33L178.34-33Q178.54-32.65 178.74-32.65L178.74-32.65 178.79-32.65 178.84-32.65 178.94-31.6Q178.94-30.85 179.09-30L179.09-30Q179.24-28.75 179.24-27.3L179.24-27.3Q179.24-26.05 179.09-25.5L179.09-25.5Q178.84-24.5 178.19-24.05L178.19-24.05 173.54-24.65 173.04-24.65 172.34-24.65Q170.64-24.65 168.44-24.3L168.44-24.3 166.79-23.95Q166.19-23.85 166.19-23.75L166.19-23.75Q166.19-22.55 167.74-21.5L167.74-21.5Q168.49-21.1 169.24-20.83 169.99-20.55 170.19-20.45L170.19-20.45Q173.89-19.4 176.59-16.8L176.59-16.8Q177.84-15.6 178.54-14.25 179.24-12.9 179.24-11.65L179.24-11.65Q179.24-10.9 179.04-10.05L179.04-10.05Q178.69-6.3 176.19-3.55L176.19-3.55Q173.74-1.1 170.04 0.05L170.04 0.05Q166.84 1.2 162.34 1.2L162.34 1.2ZM194.84 0Q194.24 0 193.49-0.15L193.49-0.15Q192.74-0.3 192.14-0.3L192.14-0.3Q191.99-0.3 191.99-0.25L191.99-0.25 191.74-0.25Q191.24-0.55 191.24-0.8L191.24-0.8 187.74-16.65Q186.29-21.85 184.79-29L184.79-29Q184.74-29.15 184.71-29.5 184.69-29.85 184.59-30.15L184.59-30.15Q184.34-31.15 184.34-31.95L184.34-31.95Q184.34-32.55 184.49-33L184.49-33Q184.59-33.65 185.24-33.65L185.24-33.65 185.84-33.65 186.99-33.65Q187.39-33.55 188.29-33.55L188.29-33.55 190.54-33.5 190.99-33.5 195.59-33.5Q195.64-33.45 195.79-33.4 195.94-33.35 196.09-33.3L196.09-33.3Q196.19-33.3 196.26-33.35 196.34-33.4 196.39-33.4L196.39-33.4Q196.59-33.5 196.79-33.5L196.79-33.5 196.99-33.5 197.49-33.45Q198.14-33.4 200.24-33.4L200.24-33.4Q200.79-33.3 201.74-33.3L201.74-33.3Q202.04-32.7 202.74-29.65L202.74-29.65 203.29-26.8Q203.49-25.75 203.99-23.65L203.99-23.65Q203.99-23.6 204.01-23.4 204.04-23.2 204.09-22.9L204.09-22.9Q204.19-22.5 204.26-22.03 204.34-21.55 204.49-21L204.49-21Q204.54-20.65 204.89-18.65L204.89-18.65 205.74-14.5 205.89-13.75 205.89-13.55Q205.99-13.5 205.99-13.3L205.99-13.3 206.04-13 206.09-13.3Q206.09-13.6 206.24-13.75L206.24-13.75Q206.24-13.8 206.26-13.98 206.29-14.15 206.34-14.5L206.34-14.5Q206.74-16.5 207.14-18.65L207.14-18.65 207.64-21Q207.74-21.6 207.84-22.05 207.94-22.5 207.99-22.9L207.99-22.9 208.14-23.65Q208.39-24.7 208.79-26.8L208.79-26.8 209.34-29.4Q209.44-29.95 209.84-31.9L209.84-31.9Q210.09-32.7 210.39-33.3L210.39-33.3Q211.09-33.3 211.49-33.35L211.49-33.35 212.74-33.4 213.74-33.45 214.14-33.5 214.29-33.5Q214.39-33.5 214.39-33.4L214.39-33.4Q214.44-33.4 214.46-33.35 214.49-33.3 214.49-33.3L214.49-33.3Q214.69-33.3 214.81-33.35 214.94-33.4 214.99-33.4L214.99-33.4 214.99-33.5 218.14-33.5 218.54-33.5Q219.14-33.5 219.54-33.55L219.54-33.55 220.79-33.55Q221.74-33.55 222.09-33.65L222.09-33.65 223.24-33.65 223.89-33.65Q224.79-33.65 224.79-32.25L224.79-32.25 224.74-31.65Q224.74-31.15 224.54-30.15L224.54-30.15Q224.39-29.65 224.36-29.38 224.34-29.1 224.29-29L224.29-29Q222.99-22.4 221.39-16.65L221.39-16.65 217.89-0.8Q217.89-0.65 217.39-0.25L217.39-0.25 217.24-0.25 216.99-0.3Q216.64-0.3 216.34-0.15L216.34-0.15Q216.04 0 215.74 0L215.74 0Q215.09 0 214.39-0.15L214.39-0.15Q213.59-0.25 213.04-0.25L213.04-0.25Q206.84 0 194.84 0L194.84 0ZM231.89 0.05Q231.54 0.05 231.24-0.23 230.94-0.5 230.79-0.95L230.79-0.95Q230.59-1.85 230.49-2.95L230.49-2.95Q230.44-3.3 230.44-3.9L230.44-3.9 230.44-4.55 230.49-10.75Q230.49-13.9 230.64-16.95L230.64-16.95 230.64-32.75Q230.64-33.25 231.29-33.25L231.29-33.25Q234.74-33.25 236.44-33.3L236.44-33.3 241.44-33.3Q241.59-33.3 241.69-33.35 241.79-33.4 241.94-33.4L241.94-33.4Q242.59-33.5 243.74-33.45L243.74-33.45Q244.59-33.45 245.54-33.3L245.54-33.3Q245.84-33.1 245.99-33.2L245.99-33.2Q246.09-33.2 246.39-33.3L246.39-33.3Q247.14-33.3 247.56-33.2 247.99-33.1 248.24-32.75L248.24-32.75Q248.49-32.3 248.64-31.65L248.64-31.65Q248.69-31.15 248.69-29.55L248.69-29.55 248.69-19.8 248.69-19.05Q248.64-18.65 248.64-17.25L248.64-17.25Q248.64-15.75 248.54-14.9L248.54-14.9 248.49-12.65Q248.44-11.9 248.44-10.75L248.44-10.75 248.39-9.95 248.39-6.75Q248.39-3.75 248.14-1.65L248.14-1.65Q248.14-0.95 247.79-0.25L247.79-0.25Q246.89-0.25 245.19-0.15L245.19-0.15Q244.39-0.15 244.14-0.05L244.14-0.05 243.64-0.05 243.49-0.05Q243.14-0.05 243.14-0.15L243.14-0.15Q242.74-0.25 242.69-0.25L242.69-0.25 242.29-0.05 237.69-0.05Q237.64 0 236.89 0L236.89 0 234.99 0 233.14 0 231.89 0.05ZM270.63 0Q265.48 0 263.13-0.05L263.13-0.05Q260.98-0.05 259.83-0.1L259.83-0.1 255.73-0.15Q255.28-0.15 254.88-0.55L254.88-0.55Q254.48-0.95 254.48-1.4L254.48-1.4 254.48-12.4 254.48-17.2 254.43-21.3Q254.43-23.35 254.53-26.45L254.53-26.45Q254.53-27.1 254.68-29.8L254.68-29.8 254.68-30.95Q254.68-32.35 255.23-33.2L255.23-33.2Q255.48-33.65 256.03-33.65L256.03-33.65Q258.48-33.65 261.38-33.55L261.38-33.55Q261.78-33.5 262.53-33.5L262.53-33.5Q264.18-33.5 264.98-33.45L264.98-33.45 267.68-33.45Q267.88-33.45 268.86-33.45 269.83-33.45 270.38-33.2L270.38-33.2Q271.28-32.7 271.28-30.9L271.28-30.9 271.23-30.5Q271.23-30.35 271.13-29.75L271.13-29.75Q270.98-29 270.98-28.65L270.98-28.65Q270.98-28.1 271.13-27.25L271.13-27.25Q271.23-26.65 271.23-26.45L271.23-26.45 271.28-26.15 271.28-19.15 271.28-15.9 271.28-12.8 271.28-12.2Q271.28-11.8 271.73-11.7L271.73-11.7Q271.88-11.65 272.38-11.65L272.38-11.65 276.03-11.65Q277.38-11.7 280.13-11.7L280.13-11.7Q280.68-11.7 281.03-11.38 281.38-11.05 281.38-10.7L281.38-10.7 281.38-1.15 281.38-1.05Q281.38-0.65 280.98-0.4L280.98-0.4Q280.53-0.2 279.93-0.15L279.93-0.15Q279.28 0 277.88 0L277.88 0 270.63 0ZM301.88 0Q296.73 0 294.38-0.05L294.38-0.05Q292.23-0.05 291.08-0.1L291.08-0.1 286.98-0.15Q286.53-0.15 286.13-0.55L286.13-0.55Q285.73-0.95 285.73-1.4L285.73-1.4 285.73-12.4 285.73-17.2 285.68-21.3Q285.68-23.35 285.78-26.45L285.78-26.45Q285.78-27.1 285.93-29.8L285.93-29.8 285.93-30.95Q285.93-32.35 286.48-33.2L286.48-33.2Q286.73-33.65 287.28-33.65L287.28-33.65Q289.73-33.65 292.63-33.55L292.63-33.55Q293.03-33.5 293.78-33.5L293.78-33.5Q295.43-33.5 296.23-33.45L296.23-33.45 298.93-33.45Q299.13-33.45 300.11-33.45 301.08-33.45 301.63-33.2L301.63-33.2Q302.53-32.7 302.53-30.9L302.53-30.9 302.48-30.5Q302.48-30.35 302.38-29.75L302.38-29.75Q302.23-29 302.23-28.65L302.23-28.65Q302.23-28.1 302.38-27.25L302.38-27.25Q302.48-26.65 302.48-26.45L302.48-26.45 302.53-26.15 302.53-19.15 302.53-15.9 302.53-12.8 302.53-12.2Q302.53-11.8 302.98-11.7L302.98-11.7Q303.13-11.65 303.63-11.65L303.63-11.65 307.28-11.65Q308.63-11.7 311.38-11.7L311.38-11.7Q311.93-11.7 312.28-11.38 312.63-11.05 312.63-10.7L312.63-10.7 312.63-1.15 312.63-1.05Q312.63-0.65 312.23-0.4L312.23-0.4Q311.78-0.2 311.18-0.15L311.18-0.15Q310.53 0 309.13 0L309.13 0 301.88 0ZM320.98 0Q320.73 0 320.23-0.08 319.73-0.15 319.03-0.2L319.03-0.2 317.98-0.45Q317.73-0.5 317.6-0.58 317.48-0.65 317.53-0.7L317.53-0.7Q317.53-2 317.38-4.15L317.38-4.15Q317.38-4.9 317.33-5.48 317.28-6.05 317.23-6.45L317.23-6.45 317.13-8.6Q317.13-9.45 317.03-10.75L317.03-10.75 316.98-12.3Q316.98-14.2 316.93-15.25L316.93-15.25Q316.88-16.3 316.88-19.65L316.88-19.65Q316.88-22.8 316.93-26.15 316.98-29.5 317.23-32.5L317.23-32.5Q317.23-33.05 318.43-33.4L318.43-33.4Q319.18-33.5 320.93-33.5L320.93-33.5Q324.98-33.5 326.88-33.65L326.88-33.65Q332.78-33.75 335.78-33.75L335.78-33.75 337.98-33.75Q342.08-33.65 344.28-33.45L344.28-33.45Q345.08-33.45 345.43-31.55L345.43-31.55Q345.58-31.2 345.78-29.75L345.78-29.75Q345.93-29 346.18-27.9L346.18-27.9Q346.23-27.6 346.2-27.33 346.18-27.05 346.18-27L346.18-27Q346.13-26.5 345.63-26.5L345.63-26.5Q345.43-26.55 345.03-26.55L345.03-26.55Q342.93-26.55 339.88-26.2L339.88-26.2 337.23-26Q335.58-25.8 334.63-25.75L334.63-25.75Q334.48-25.75 334.23-25.15L334.23-25.15Q334.03-24.5 333.78-22.15L333.78-22.15 333.68-20.9Q333.68-20.25 333.83-20.08 333.98-19.9 334.48-19.9L334.48-19.9 338.93-19.9Q340.88-19.9 343.38-19.65L343.38-19.65 343.98-19.65Q344.63-19.5 344.78-19.15L344.78-19.15Q344.98-18.85 345.03-18.5L345.03-18.5 345.23-14.05 345.23-13.9Q345.23-13.05 343.43-12.9L343.43-12.9Q342.38-12.65 339.43-12.65L339.43-12.65Q336.88-12.65 336.13-12.7L336.13-12.7Q334.68-12.7 334.38-12.65L334.38-12.65Q333.83-12.5 333.68-12.08 333.53-11.65 333.53-10.65L333.53-10.65Q333.53-10 333.43-8.8L333.43-8.8Q333.38-8.2 333.38-6.9L333.38-6.9Q336.63-6.9 338.18-7L338.18-7Q339.88-7.15 342.98-7.15L342.98-7.15Q343.18-7.15 343.38-6.8L343.38-6.8Q343.63-6.3 344.18-4.55L344.18-4.55Q344.48-3.55 344.78-2.05L344.78-2.05Q344.88-1.7 344.88-1.3L344.88-1.3Q344.88-0.25 343.88-0.25L343.88-0.25Q342.58-0.25 340.38-0.15L340.38-0.15Q339.23-0.05 336.78-0.05L336.78-0.05Q331.53-0.05 328.88 0L328.88 0 320.98 0Z" fill="#41a067" data-fill-palette-color="primary"></path></g></svg></g></svg></g></svg></g></svg></g><g transform="matrix(1,0,0,1,405.2926762785642,0)"><svg viewBox="0 0 64.83438230146956 57.209706268218014" height="57.209706268218014" width="64.83438230146956"><g><svg xmlns="http://www.w3.org/2000/svg" xmlns:xlink="http://www.w3.org/1999/xlink" version="1.1" x="0" y="0" viewBox="8.157174110412598 19.94239044189453 82.05963134765625 72.40922546386719" enable-background="new 0 0 100 100" xml:space="preserve" height="57.209706268218014" width="64.83438230146956" class="icon-icon-0" data-fill-palette-color="accent" id="icon-0"><path d="M88.721 20.993c-4.344-3.1-9.382 1.34-12.112 4.531-4.231 4.945-7.09 11.064-9.078 17.216-0.85-4.681-2.316-10.591-6.879-13.048-4.097-2.206-9.751 0.737-10.521 5.259-3.813-3.412-10.24-1.197-11.498 3.68-3.451-2.288-8.168-0.645-9.735 3.122-3.049-4.775-6.283-9.608-10.261-13.668-1.796-1.833-4.89-4.873-7.771-3.692-4.11 1.685-2.695 6.258-1.252 9.289 2.332 4.899 5.488 9.413 8.315 14.032 2.219 3.625 4.366 7.294 6.362 11.048 1.681 5.25 3.423 10.497 5.549 15.587 1.531 3.669 3.264 7.335 5.652 10.533 1.91 2.559 4.301 4.752 7.312 5.916 5.038 1.946 10.856 1.821 16.104 0.945 5.415-0.904 10.74-2.803 15.348-5.816 2.058-1.346 4.04-2.884 5.419-4.949 1.188-1.779 1.877-3.827 2.216-5.929 0.801-4.971 0.013-10.105-0.271-15.087-0.319-5.602-0.077-11.208 1.218-16.684 0.576-2.437 1.327-4.905 2.577-7.089l0.041-0.079c1.402-2.855 3.035-5.639 4.092-8.65C90.293 25.334 90.856 22.518 88.721 20.993 87.569 20.172 91.977 23.318 88.721 20.993zM56.485 31.92c2.67-0.903 4.791 1.59 5.929 3.676 1.043 1.912 1.524 3.986 1.934 6.104 0.602 3.11 1.065 6.252 1.474 9.394 0.037 2.161-2.162 3.613-4.115 3.883-2.664 0.368-4.168-2.625-5.023-4.655-0.82-2.655-1.994-6.116-2.91-8.765l-0.529-2.172C52.184 35.044 53.032 33.091 56.485 31.92 57.418 31.605 53.032 33.091 56.485 31.92zM43.708 36.596c2.66-1.17 4.296-0.512 6.3 2.724 0.64 1.811 2.214 6.305 3.417 10.039 0.667 2.128 1.509 4.268 1.158 6.542-0.183 1.186-0.679 2.484-1.692 3.205-1.522 1.084-3.374 0.035-4.596-1.004l-6.922-16.028-0.086-0.403C41.209 41.294 40.601 37.961 43.708 36.596 46.368 35.425 40.601 37.961 43.708 36.596zM33.732 40.645c2.327-0.944 3.939 0.643 4.617 1.525l6.765 15.665 0.382 1.263c0.75 2.46-2.043 3.439-4.048 3.001-2.074-0.453-3.657-2.207-4.842-3.859-2.545-3.552-4.185-7.847-5.363-12.03l-0.103-0.63C31.117 45.43 30.586 41.922 33.732 40.645 36.06 39.701 30.586 41.922 33.732 40.645zM84.099 32.552c-0.394 0.768-0.783 1.532-1.151 2.277-2.472 4.347-3.465 9.595-3.981 14.515-0.597 5.698-0.092 11.358 0.271 17.052 0.273 4.299 0.573 9.215-1.899 12.987-1.236 1.886-3.115 3.24-4.996 4.428-2.054 1.297-4.259 2.352-6.535 3.194-4.383 1.621-9.09 2.515-13.768 2.501-3.49-0.011-7.354-0.455-10.34-2.419-2.583-1.698-4.452-4.309-5.972-6.951-2.237-3.887-3.883-8.108-5.408-12.315-1.203-3.32-2.311-6.675-3.387-10.04l-0.038-0.119-0.059-0.11c-2.751-5.187-5.802-10.201-8.9-15.185-1.589-2.555-3.201-5.1-4.657-7.733-0.947-1.713-2.07-3.619-2.339-5.594-0.124-0.908 0.265-2.251 1.439-2.048 0.632 0.109 1.22 0.483 1.734 0.845 3.49 2.446 6.143 6.305 8.574 9.721 1.982 2.786 3.854 5.653 5.624 8.578 1.129 4.301 2.745 8.611 5.108 12.392 1.382 2.211 3.134 4.404 5.494 5.617 3.039 1.561 8.119 1.084 9.301-2.672 4.354 2.42 8.431-0.589 9.131-5.146 2.767 2.37 6.871 1.639 9.385-0.783 1.332-1.284 1.777-2.967 1.692-4.763l-0.004-0.114c-0.004-0.085-0.007-0.17-0.012-0.256 1.764-8.371 5.021-17.328 10.892-23.742 1.618-1.768 5.198-5.236 7.787-3.385 0.948 0.678-0.072 2.919-0.367 3.686C85.98 28.889 85.032 30.723 84.099 32.552 83.705 33.32 85.694 29.428 84.099 32.552z" fill="#3d9970" data-fill-palette-color="accent"></path></svg></g></svg></g></svg></g></svg><rect width="395.52" height="48.13078211568948" fill="none" stroke="none" visibility="hidden"></rect></g></svg></g></svg>